<svg width="13" height="16" xmlns="http://www.w3.org/2000/svg"><path d="M7.857152 10.2857075c0-.7924117-.636161-1.4285732-1.428573-1.4285732-.792412 0-1.428573.6361615-1.428573 1.4285732 0 .5580364.323661 1.0267869.781251 1.2723229l-.77009 2.5558066c-.033482.1004466-.011161.2232146.055803.3125004.066965.0892858.178572.1450895.290179.1450895h2.14286c.111607 0 .223214-.0558037.290179-.1450895.066964-.0892858.089286-.2120538.055803-.3125004l-.77009-2.5558066c.45759-.245536.781251-.7142865.781251-1.2723229zM3.571433 7.4285612h5.714292V5.2857015c0-1.5736626-1.283483-2.8571462-2.857146-2.8571462-1.573662 0-2.857146 1.2834836-2.857146 2.8571462v2.1428597zm9.285725 1.0714299v6.4285791c0 .5915185-.479911 1.0714298-1.07143 1.0714298H1.07143C.479911 16 0 15.5200887 0 14.9285702V8.4999911c0-.5915186.479911-1.0714299 1.07143-1.0714299h.357143V5.2857015c0-2.745539 2.254467-5.0000059 5.000006-5.0000059s5.000006 2.2544669 5.000006 5.0000059v2.1428597h.357143c.591519 0 1.07143.4799113 1.07143 1.0714299z" fill="#DDD" fill-rule="evenodd"/></svg>